<svg aria-hidden="true" style="position: absolute; width: 0; height: 0; overflow: hidden;" version="1.1" xmlns="http://www.w3.org/2000/svg" xmlns:xlink="http://www.w3.org/1999/xlink">
<defs>
<symbol id="icon-burger_menu" viewBox="0 0 32 32">
<path stroke-linejoin="round" stroke-linecap="round" stroke-miterlimit="4" stroke-width="2" d="M5 16h22"></path>
<path stroke-linejoin="round" stroke-linecap="round" stroke-miterlimit="4" stroke-width="2" d="M5 8h22"></path>
<path stroke-linejoin="round" stroke-linecap="round" stroke-miterlimit="4" stroke-width="2" d="M5 24h22"></path>
</symbol>
<symbol id="icon-wok" viewBox="0 0 31 32">
<path d="M14.869 8.4l-0.373 1.942-1.898 0.682c-1.145 0.29-2.054 0.738-2.491 1.015-0.317 0.114-1.068 0.504-1.663 0.839-1.663 0.839-5.383 2.898-6.811 3.893-1.188 0.668-1.666 1.322-1.632 1.913l0.192 0.534c0 0 0.393 0.1 0.747 0.094l0.867-0.070-0.36 0.491c-0.556 0.441-1.006 2.17-0.852 2.597 0.033 0.59 1.917 1.361 3.57 1.491 0.355-0.007 0.59 0.15 0.628 0.256s0.311 0.37 0.465 0.797c0.273 0.264 0.853 1.381 1.275 2.556l0.805 2.242 0.513-0.064c1.298 0.136 4.599 0.879 6.406 1.436 0.59 0.15 1.61 0.507 2.199 0.656l1.178 0.3 0.516-0.548c0.36-0.491 0.756-0.874 2.304-2.033 0.436-0.277 0.991-0.718 1.27-0.938 0.278-0.221 0.953-0.824 1.471-1.372l1.668-1.322c1.231-1.045 3.454-2.807 3.612-2.864 0.317-0.114 0.636-0.711 0.521-1.031-0.072-0.697 0.2-4.412 0.282-4.682 0.12-0.164 0.24-0.328 0.516-0.548 0.158-0.057 0.518-0.548 0.718-0.981 0.598-0.817 0.526-1.516 0.138-2.099-0.077-0.214-0.35-0.477-0.465-0.797s-0.388-0.584-0.585-0.634c-0.235-0.157-0.115-0.321 0.593-0.334l0.79-0.284c0.278-0.221 0.086-0.754-0.422-1.175-0.47-0.313-2.707-1.078-2.903-1.128-0.158 0.057-0.355 0.007-0.708 0.013-0.355 0.007-0.59-0.15-0.708 0.013 0 0-0.943-0.143-2.085-0.336-2.476-0.437-3.344-0.366-5.356-0.005-0.828 0.177-1.5 0.297-1.5 0.297s0.402-0.867 0.924-1.899c0.363-0.974 1.167-2.71 1.729-3.635 0.365-0.975 0.886-2.006 1.044-2.063 0.36-0.491 0.087-0.754-0.858-0.898-0.393-0.1-0.785-0.201-0.785-0.201-0.077-0.214-2.003-0.607-1.965-0.5-0.12 0.164-0.245 0.811-0.488 1.622-0.45 1.728-0.899 3.458-1.182 4.162-0.239 0.329-0.526 1.517-0.852 2.598zM1.143 18.876c-0.671 0.12-0.863-0.413-0.345-0.961 0.201-0.434 1.824-1.378 3.923-2.494 0.713-0.498 1.624-0.945 1.939-1.059 2.338-1.442 4.157-2.337 5.618-2.741 1.896-0.681 2.093-0.631 1.773-0.034-0.081 0.271-0.36 0.491-0.516 0.548-0.158 0.057-0.436 0.277-0.436 0.277-0.24 0.328-1.548 1.158-2.021 1.328-0.158 0.057-0.91 0.447-1.504 0.782-1.308 0.832-3.684 2.167-4.593 2.614-0.475 0.171-0.751 0.391-0.91 0.447-0.12 0.164-0.398 0.384-0.713 0.498-0.716 0.499-1.664 0.839-2.214 0.795zM12.139 13.721c0 0 0 0 0.038 0.107l-0.12 0.164-0.038-0.107c-0.037-0.107-0.037-0.107 0.12-0.164zM25.544 12.282c0.163-0.54 0.322-0.597 0.158-0.057-0.12 0.164-0.201 0.434-0.36 0.491 0 0-0.077-0.214 0.201-0.434zM24.921 11.541c-0.038-0.107-0.038-0.107 0.12-0.164s0.197 0.050 0.235 0.157c-0.12 0.164-0.278 0.221-0.355 0.007zM26.133 12.433l0.478-0.653-0.322 0.597c-0.245 0.811-0.919 1.415-2.702 2.417-0.91 0.447-1.782 1.002-1.782 1.002l-0.158 0.057c0.12-0.164 0.556-0.441 1.269-0.939 1.349-0.726 2.58-1.771 3.217-2.481zM27.005 11.878l0.552 0.043c0.513-0.064 0.943 0.143 0.628 0.256 0 0-0.593 0.334-1.308 0.832-0.991 0.718-1.149 0.775-0.752 0.391 0.12-0.164 0.478-0.653 0.56-0.924l0.32-0.598zM17.811 13.612c-0.436 0.277-0.953 0.824-1.154 1.258-0.24 0.328-0.402 0.867-0.521 1.031l0.077 0.214-0.235-0.157c-0.432-0.207-0.432-0.207 0.043-0.378 0.158-0.057 0.278-0.221 0.24-0.328-0.115-0.321 0.206-0.918 0.761-1.359s1.586-1.051 1.624-0.946c0.001 0.002-0.436 0.279-0.834 0.663zM19.234 13.101l0.593-0.334-0.398 0.384c-0.871 0.554-1.829 1.863-2.151 2.46-0.402 0.867-0.637 0.71-0.393-0.1 0.366-0.974 1.122-1.849 2.349-2.411zM16.524 16.486c0 0 0.666 0.363 1.173 0.784 0.666 0.363 1.173 0.784 1.37 0.834s0.197 0.050 0.197 0.050c-0.475 0.171-0.67 0.12-1.217-0.407-0.47-0.313-0.977-0.734-1.212-0.891-0.273-0.264-0.47-0.314-0.312-0.371zM18.762 17.249c-0.393-0.1 0.526-1.516 1.399-2.069 0.278-0.221 0.91-0.447 1.543-0.675l1.106-0.397-1.068 0.504c-0.555 0.441-1.308 0.832-1.548 1.158-0.278 0.221-0.637 0.71-0.876 1.038-0.241 0.328-0.518 0.548-0.556 0.441zM22.814 13.625c-0.317 0.114-1.068 0.504-1.701 0.732-0.79 0.284-1.265 0.454-1.663 0.839l-0.555 0.441 0.24-0.328c0.081-0.271 0.322-0.597 0.598-0.817 0.555-0.441 0.871-0.554 2.846-1.022l0.671-0.12-0.437 0.276zM23.403 13.774c0 0-0.12 0.164-0.278 0.221-0.317 0.114-0.355 0.007 0.081-0.271 0.158-0.057 0.158-0.057 0.197 0.050zM20.745 15.814c0.555-0.441 0.713-0.498 0.355-0.007-0.278 0.221-0.795 0.767-1.035 1.095s-0.36 0.491-0.36 0.491c-0.235-0.157 0.483-1.138 1.039-1.579zM21.215 16.128c0.278-0.221 0.317-0.114 0.077 0.214l-0.478 0.653c-0.081 0.271-0.201 0.434-0.36 0.491-0.159 0.056 0.363-0.975 0.761-1.359zM23.389 15.226c0.436-0.277 0.475-0.171 0.197 0.050-0.12 0.164-0.398 0.384-0.555 0.441-0.278 0.221-0.713 0.498-0.991 0.718s-0.436 0.277-0.475 0.171c-0.039-0.108 1.073-0.989 1.824-1.379zM24.237 13.114c-0.12 0.164-0.436 0.277-0.436 0.277-0.158 0.057-0.158 0.057 0.12-0.164 0.556-0.441 0.556-0.441 0.317-0.114zM24.045 12.579c0 0-0.038-0.107 0.081-0.271-0.077-0.214 0.081-0.271 0.24-0.328 0 0 0 0 0.077 0.214-0.12 0.164-0.24 0.328-0.398 0.384zM24.528 11.441c-0.081 0.271-0.24 0.328-0.317 0.114s-0.67 0.12-0.593 0.334c-0.081 0.271-0.403 0.868-0.68 1.088-0.158 0.057-0.828 0.177-1.303 0.347-1.341 0.24-1.936 0.575-2.812 1.613-0.36 0.491-0.68 1.088-0.761 1.359-0.201 0.434-0.201 0.434-0.398 0.384-0.153-0.427-0.033-0.59 0.288-1.189 0.881-1.522 2.27-2.624 3.213-2.481 0.197 0.050 0.355-0.007 0.513-0.064l0.158-0.057c0.235 0.157 0.708-0.013 0.948-0.341 0.478-0.653 0.603-1.302-0.029-1.075-0.158 0.057-0.197-0.050-0.235-0.157s-0.197-0.050-0.355 0.007-0.158 0.057-0.12 0.164c0.077 0.214-0.363 0.974-0.56 0.924-0.475 0.171-1.533-0.293-1.845-0.664-0.273-0.264-0.311-0.37-0.943-0.143-0.12 0.164-0.317 0.114-0.513 0.064-0.355 0.007-1.341 0.24-1.936 0.575-0.158 0.057-0.475 0.171-0.475 0.171s0.201-0.434 0.363-0.974c0.521-1.031 0.761-1.359 0.876-1.038 0 0 0.038 0.107 0.197 0.050 0 0 4.288 0.51 4.643 0.503 0.077 0.214 2.281 0.387 2.635 0.38 0.001-0.001 0.198 0.050 0.040 0.106zM22.276 12.129c0.322-0.597 0.478-0.653 0.317-0.114-0.12 0.164-0.201 0.434-0.36 0.491s-0.077-0.214 0.043-0.378zM18.966 12.354l-0.751 0.391c-0.948 0.341-1.504 0.782-2.141 1.492-0.12 0.164-0.322 0.597-0.402 0.867l-0.201 0.434-0.274-0.264c-0.273-0.264-0.115-0.321 0.483-1.138 0.718-0.981 1.313-1.315 2.457-1.606l0.828-0.177zM15.811 16.984c0.59 0.15 1.725 0.827 1.84 1.147 0.038 0.107 0.115 0.321 0.35 0.477s0.47 0.313 0.311 0.37c0 0-0.197-0.050-0.235-0.157 0 0-0.47-0.313-0.782-0.684-0.82-0.791-1.643-1.097-2.668-0.971-0.513 0.064-0.67 0.12-0.948 0.341-0.24 0.328-0.436 0.277-0.197-0.050 0.397-0.383 1.542-0.673 2.328-0.473zM14.45 19.16c-0.158 0.057-0.355 0.007-0.355 0.007-0.235-0.157 0.24-0.328 0.593-0.334 0.197 0.050 0.393 0.1 0.47 0.313 0.47 0.313 0.312 0.37-0.12 0.164-0.233-0.157-0.588-0.15-0.588-0.15zM15.189 20.221l0.153 0.427c0.077 0.214 0.077 0.214-0.317 0.114-0.273-0.264-0.273-0.264-0.153-0.427 0.278-0.221 0.278-0.221 0.317-0.114zM14.259 18.627c-0.278 0.221-0.475 0.171-0.355 0.007 0.043-0.378 1.581-0.568 2.049-0.254 0.235 0.157 0.508 0.42 0.623 0.741s0.388 0.584 0.547 0.527c0.197 0.050 0.235 0.157 0.235 0.157l-0.475 0.171c-0.278 0.221-0.317 0.114-0.666-0.363-0.579-1.119-1.167-1.268-1.958-0.984zM14.306 17.765c0.158-0.057 0.475-0.171 0.513-0.064 0.197 0.050-0.12 0.164-0.632 0.227-0.356 0.007-0.356 0.007 0.118-0.163zM13.057 16.767c-0.115-0.321 0.125-0.647 0.675-0.604 0.355-0.007 0.432 0.207-0.043 0.378-0.158 0.057-0.317 0.114-0.278 0.221-0.081 0.271-0.238 0.327-0.353 0.006zM14.521 15.879c-0.628-0.256-1.14-0.193-1.576 0.084-0.556 0.441-0.79 0.284-0.235-0.157 0.436-0.277 1.106-0.397 1.5-0.297 0.158-0.057 0.393 0.1 0.628 0.256 0.432 0.207 0.274 0.264-0.316 0.114zM11.005 17.021c-0.393-0.1-0.628-0.256-0.666-0.363s0.24-0.328 0.632-0.227c0.867-0.070 1.375 0.35 1.835 1.632 0.388 0.584 0.58 1.118 0.422 1.175s-0.35-0.477-0.58-1.118c-0.387-0.585-0.699-0.955-1.642-1.099zM12.329 18.716c0.154 0.428 0.268 0.747 0.268 0.747l-0.158 0.057c-0.552-0.043-1.519-1.746-1.045-1.916 0.159-0.056 0.47 0.314 0.935 1.111zM5.99 18.462c0.12-0.164 0.201-0.434 0.36-0.491 0.081-0.271 1.029-0.611 1.581-0.568s1.648 0.614 1.801 1.041c0.077 0.214 0.192 0.534 0.427 0.691 0.508 0.42 0.547 0.527-0.201 0.434-0.59-0.15-1.097-0.571-0.82-0.791 0.516-0.548-1.207-1.375-1.998-1.091-0.475 0.171-0.953 0.824-1.035 1.095l0.038 0.107c-0.235-0.157-1.85-0.179-2.4-0.223-0.317 0.114-0.513 0.064-0.552-0.043 0 0 1.030-0.611 2.376-1.335 0.91-0.447 1.068-0.504 1.265-0.454 0.038 0.107 0.197 0.050 0.513-0.064 0.595-0.334 1.5-0.297 2.205 0.173 0.823 0.307 0.9 0.52 1.168 1.268 0.465 0.797 0.307 0.854 0.033 0.59-0.197-0.050-0.508-0.42-0.585-0.634-0.504-0.904-1.562-1.368-2.588-1.241-1.025 0.127-1.739 0.625-2.059 1.221-0.043 0.378-0.005 0.483 0.033 0.59 0.197 0.052 0.356-0.005 0.437-0.275zM7.010 18.818c0.278-0.221 0.632-0.227 1.063-0.020 0.197 0.050 0.432 0.207 0.312 0.37 0.038 0.107-0.12 0.164-0.708 0.013-0.59-0.149-0.785-0.2-0.666-0.363zM6.777 18.661c-0.081 0.271-0.201 0.434-0.24 0.328-0.077-0.214 0.441-0.761 0.756-0.874-0.278 0.221-0.398 0.383-0.517 0.547zM9.477 16.245c-0.393-0.1-0.785-0.2-1.14-0.193s-0.513 0.064-0.235-0.157c1.744-1.108 3.367-2.053 3.405-1.946 0 0-0.043 0.378-0.086 0.754-0.125 0.647 0.029 1.075 0.422 1.175 0.235 0.157 0.235 0.157-0.317 0.114-0.59-0.15-1.063 0.020-1.341 0.24-0.119 0.162-0.473 0.17-0.708 0.013zM11.848 15.393c-0.273-0.264-0.029-1.075 0.13-1.132 0 0 0 0 0.038 0.107-0.081 0.271-0.163 0.541-0.086 0.754-0.043 0.378-0.043 0.378-0.082 0.271zM3.227 23.191c-1.14-0.193-1.845-0.664-2.037-1.197-0.268-0.747 0.416-2.32 1.011-2.654 0.593-0.334 2.759-0.268 4.096-0.024l1.375 0.35c0.355-0.007 0.747 0.094 0.905 0.037 0.197 0.050 0.785 0.201 1.533 0.293 1.298 0.136 3.851 0.787 4.479 1.043 0.393 0.1 0.432 0.207-0.005 0.483-0.081 0.271-0.637 0.71-1.193 1.152s-1.27 0.938-1.744 1.108c-1.226 0.561-3.234 0.439-6.3-0.148-0.587-0.15-1.53-0.293-2.12-0.443zM16.225 27.082c-0.153-0.427-0.388-0.584-0.388-0.584-0.158 0.057 0.033 0.59 0.302 1.339 0.23 0.64 0.575 1.602 0.647 2.299 0.192 0.534 0.225 1.125 0.067 1.182 0 0-0.077-0.214-0.192-0.534-0.225-1.125-1.141-4.171-1.299-4.114s-0.005 0.483 0.302 1.339c0.46 1.281 0.571 2.086 0.642 2.783s-0.316 0.114-0.427-0.691c-0.187-1.018-0.997-2.777-1.314-2.663 0 0-0.043 0.378 0.268 0.747 0.652 1.815 0.921 2.563 0.566 2.57-0.158 0.057-0.197-0.050-0.849-1.866-0.153-0.427-0.388-0.584-0.547-0.527 0 0 0.153 0.427 0.422 1.175 0.23 0.64 0.384 1.068 0.384 1.068-0.317 0.114-0.552-0.043-0.897-1.004-0.504-0.904-0.858-0.898-0.475 0.171 0.465 0.797 0.072 0.697-0.47-0.313-0.115-0.321-0.388-0.584-0.547-0.527s-0.081 0.271 0.268 0.747c0.273 0.264 0.35 0.477 0.35 0.477-0.475 0.171-0.628-0.256-0.858-0.898-0.192-0.534-0.427-0.691-0.585-0.634 0 0-0.081 0.271 0.23 0.64 0.115 0.321 0.23 0.64 0.072 0.697-0.197-0.050-0.628-0.256-0.547-0.527-0.23-0.64-0.503-0.904-0.465-0.797-0.158 0.057-0.201 0.434-0.125 0.647l0.153 0.427-0.35-0.477c-0.235-0.157-0.47-0.313-0.628-0.256 0 0-0.038-0.107-0.077-0.214s-0.197-0.050-0.355 0.007c0 0 0.077 0.214 0.115 0.321 0.273 0.264-0.005 0.483-0.278 0.221-0.35-0.477-0.508-0.42-0.47-0.313-0.081 0.271-0.24 0.328-0.633 0.227-0.197-0.050-0.552-0.043-0.59-0.15 0 0-0.384-1.068-0.767-2.136-0.422-1.175-0.964-2.185-0.964-2.185-0.038-0.107-0.077-0.214 0.081-0.271-0.158 0.057-0.197-0.050-0.235-0.157-0.077-0.214 0.12-0.164 0.905 0.037 0.59 0.15 1.14 0.193 1.298 0.136 0 0 0.197 0.050 0.393 0.1 0.786 0.199 2.323 0.009 3.272-0.332 0.79-0.284 1.226-0.561 2.338-1.442l1.39-1.101-0.043 0.378c0.077 0.214 0.192 0.534 0.149 0.911 0.115 0.321 0.34 1.445 0.566 2.57 0.422 2.136 0.537 2.457 0.192 1.496zM18.119 30.862c-0.317 0.114-0.508-0.42-0.23-0.64 0 0 0.158-0.057 0.197 0.050l0.115 0.321c0.195 0.051 0.075 0.213-0.082 0.27zM19.55 29.384c-0.038-0.107-0.077-0.214 0.043-0.378 0.115 0.321 0.154 0.428-0.043 0.378zM28.434 18.839c-0.158 0.057-0.163 0.54-0.206 0.918-0.163 0.54-0.245 0.811-0.245 0.811s0.005-0.483-0.029-1.075c0.168-1.025 0.286-1.188 0.010-0.968-0.158 0.057-0.283 0.704-0.339 2.533-0.048 0.861-0.286 1.188-0.36 0.491-0.077-0.214 0.048-0.861 0.091-1.239 0.086-0.754-0.029-1.075-0.268-0.747-0.12 0.164-0.245 0.811-0.133 1.615 0.072 0.697-0.053 1.346-0.173 1.509s-0.345-0.961-0.177-1.986c0.086-0.754-0.029-1.075-0.268-0.747s-0.018 1.935 0.212 2.576c0.153 0.427-0.168 1.025-0.483 1.138-0.158 0.057-0.23-0.64-0.22-1.608 0.086-0.754 0.010-0.968-0.149-0.911s-0.253 1.778-0.061 2.313c0.077 0.214 0.154 0.428-0.087 0.754l-0.24 0.328-0.077-0.214c-0.038-0.107-0.23-0.64-0.225-1.125 0.13-1.132 0.091-1.239-0.187-1.018-0.158 0.057-0.206 0.918 0.019 2.043 0.153 0.427 0.072 0.697-0.206 0.918s-0.317 0.114-0.422-1.175c-0.077-0.214-0.115-0.321-0.115-0.321-0.158 0.057-0.13 1.132 0.024 1.558 0.115 0.321-0.086 0.754-0.403 0.868 0 0-0.115-0.321-0.268-0.747 0.005-0.483-0.23-0.64-0.192-0.534-0.158 0.057-0.24 0.328-0.201 0.434 0.23 0.64 0.264 1.232-0.014 1.452s-0.317 0.114-0.35-0.477c-0.115-0.321-0.192-0.534-0.192-0.534-0.158 0.057-0.125 0.647 0.067 1.182 0.077 0.214-0.163 0.54-0.478 0.653 0 0-0.115-0.321-0.192-0.534-0.115-0.321-0.153-0.427-0.153-0.427-0.158 0.057-0.24 0.328-0.163 0.54 0.072 0.697 0.149 0.911-0.010 0.968s-0.273-0.264-0.388-0.584c0.043-0.378-0.192-0.534-0.153-0.427-0.158 0.057-0.081 0.271-0.005 0.483 0.192 0.534 0.149 0.911-0.168 1.025 0 0-0.235-0.157-0.192-0.534-0.115-0.321-0.192-0.534-0.192-0.534-0.158 0.057-0.163 0.54 0.029 1.075 0.077 0.214-0.043 0.378-0.201 0.434s-0.235-0.157-0.311-0.37-0.312-0.37-0.59-0.15c-0.278 0.221-0.401 0.867-0.168 1.025 0.038 0.107 0.077 0.214-0.081 0.271-0.278 0.221-0.278 0.221-0.432-0.207-0.077-0.214-0.115-0.321-0.273-0.264s-0.081 0.271-0.005 0.483c0.192 0.534 0.072 0.697-0.24 0.328-0.077-0.214-0.273-0.264-0.432-0.207s-0.197-0.050-0.465-0.797c-0.153-0.427-0.264-1.232-0.379-1.552 0.005-0.483-0.144-1.396-0.374-2.036-0.268-0.747-0.455-1.765-0.489-2.356 0.005-0.483-0.029-1.075-0.105-1.289-0.038-0.107-0.077-0.214-0.077-0.214 0.158-0.057 0.59 0.15 1.020 0.357 0.862 0.414 1.097 0.571 1.965 0.5 2.126-0.041 4.302-0.943 6.839-2.819 0.713-0.497 1.27-0.938 1.586-1.051 0.158-0.057 0.555-0.441 0.833-0.661 0.12-0.164 0.398-0.384 0.436-0.277 0.164-0.059 0.116 0.802-0.124 1.13zM30.062 13.432c0.542 1.011 0.537 1.495-0.219 2.37-0.478 0.653-2.94 2.744-3.257 2.857-0.158 0.057-0.593 0.334-1.188 0.668-0.398 0.384-1.27 0.938-1.548 1.158-0.475 0.171-0.91 0.447-1.029 0.611-0.278 0.221-2.174 0.902-2.884 0.915-1.025 0.127-1.969-0.016-2.831-0.429-0.823-0.307-1.097-0.571-0.623-0.741 0.158-0.057 0.833-0.661 1.666-1.322s1.824-1.378 2.261-1.656c0.475-0.171 1.466-0.889 2.338-1.442 0.675-0.604 1.824-1.378 2.577-1.769 0.555-0.441 1.548-1.158 2.141-1.492 0.555-0.441 1.308-0.832 1.308-0.832 0.278-0.222 0.628 0.255 1.289 1.103zM18.285 9.464c0.475-0.171 1.5-0.297 2.17-0.417 1.063-0.020 4.762 0.339 4.839 0.553 0 0 0.393 0.1 0.943 0.144 0.513-0.064 1.26 0.029 1.653 0.129 0.981 0.25 2.471 0.921 2.587 1.241 0.077 0.214-0.555 0.441-0.79 0.284-0.038-0.107-0.355 0.007-0.513 0.064-0.317 0.114-0.867 0.070-2.4-0.223-0.393-0.1-1.533-0.293-2.596-0.273-0.943-0.143-2.085-0.336-2.476-0.437-1.495-0.186-1.691-0.236-2.831-0.43-0.552-0.043-1.298-0.136-1.336-0.243-0.393-0.1-0.235-0.157 0.751-0.391zM20.687 1.247l-0.36 0.491c-0.081 0.271-0.363 0.974-0.684 1.572s-0.564 1.409-0.805 1.735c-0.322 0.597-1.527 3.201-2.734 5.805-0.402 0.867-0.924 1.899-1.164 2.226-0.081 0.271-0.163 0.54-0.125 0.647 0.235 0.157 0.393 0.1 0.475-0.171-0.077-0.214 0.043-0.378 0.201-0.434s0.475-0.171 0.593-0.334c0.12-0.164 0.593-0.334 0.91-0.447l0.633-0.227-0.751 0.391c-0.871 0.554-1.27 0.938-1.867 1.756-0.36 0.491-0.637 0.71-0.637 0.71s-0.158 0.057-0.355 0.007c-0.158 0.057-0.513 0.064-0.828 0.177-0.632 0.227-0.632 0.227-0.747-0.094-0.154-0.428 0.091-1.239 0.445-1.245 0.098-0.035 0.195-0.070 0.247-0.118-0.031 0.104-0.081 0.271-0.132 0.438-0.322 0.597-0.322 0.597-0.043 0.378 0.158-0.057 0.475-0.171 0.513-0.064 0 0 0.355-0.007 0.671-0.12 0.513-0.064 0.67-0.12 0.555-0.441-0.077-0.214-0.154-0.428 0.086-0.754 0.12-0.164 0.201-0.434 0.201-0.434s-0.077-0.214 0.081-0.271c0.12-0.164 0.325-1.081 0.689-2.056 0.325-1.081 0.651-2.163 0.852-2.597s0.401-0.867 0.401-0.867c-0.038-0.107 0.934-2.867 1.015-3.138 0.12-0.164 0.56-0.924 0.684-1.572l0.483-1.138 1.494 0.19zM16.684 4.011l0.732-2.433 0.363-0.974 0.393 0.1 0.552 0.043-0.125 0.647c-0.081 0.271-0.363 0.974-0.684 1.572-0.804 1.736-1.13 2.818-1.335 3.735-0.163 0.54-0.445 1.245-0.684 1.572-0.043 0.378-0.325 1.081-0.488 1.622s-0.488 1.621-0.891 2.49c-0.363 0.974-0.526 1.515-0.843 1.629-0.158 0.057-0.197-0.050-0.115-0.321 0.12-0.164 0.24-0.328 0.398-0.384 0 0 0.12-0.164 0.081-0.271 0 0 0.082-0.271 0.125-0.647 0.402-0.867 0.44-0.76 0.608-1.785 0.613-2.27 0.981-3.727 1.263-4.432 0.161-0.543 0.524-1.517 0.649-2.164z"></path>
</symbol>
<symbol id="icon-avocado" viewBox="0 0 36 32">
<path d="M22.998 16.95c0.136 0.086 0.358 0.036 0.358 0.036 0.086-0.136 0.036-0.358-0.1-0.444-0.186-0.308-0.186-0.308-0.272-0.172-0.172 0.272-0.258 0.408 0.014 0.581z"></path>
<path d="M9.941 14.397c-0.136-0.086-0.222 0.050-0.243 0.988-0.107 1.074 0.078 1.381 0.285 0.752s0.23-1.567-0.042-1.74z"></path>
<path d="M10.084 16.581c-0.036 0.358 0.236 0.531 0.323 0.395s0.058-1.295 0.058-1.295c-0.136-0.086-0.345 0.542-0.381 0.9z"></path>
<path d="M32.551 16.904c0.43-0.679 0.81-1.582 1.067-1.989 0.466-1.037 0.795-2.161 0.868-2.877 0.036-0.358 0.329-1.124 0.451-1.618 0.588-1.532 0.625-5.504 0.088-7.366-0.487-1.64-0.401-1.776-1.303-2.156-0.68-0.43-0.952-0.602-1.755-0.539-0.716-0.072-1.433-0.144-1.877-0.046l-1.79-0.182c-0.086 0.136-0.802 0.064-1.382 0.077-3.087-0.24-4.383-0.3-6.074-0.036-0.667 0.15-1.913 0.312-2.714 0.377-0.803 0.063-1.826 0.176-2.271 0.276-0.802 0.064-1.468 0.213-2.221 0.498-0.445 0.1-1.332 0.299-2.085 0.584-2.221 0.498-4.255 1.304-5.572 2.183-1.847 1.114-1.762 0.979-3.309 3.424-1.512 2.088-1.598 2.224-1.877 3.57-0.157 0.851-0.451 1.618-0.401 1.84-0.036 0.358-0.337 2.641-0.337 2.641-0.172 0.272 0.077 4.997 0.363 5.748 0.35 1.554 1.468 3.402 2.42 4.005 0.409 0.259 0.73 0.652 1.002 0.825 0.050 0.222 0.508 0.702 0.78 0.875s0.68 0.43 0.73 0.652c0.186 0.308 3.265 2.066 4.712 2.791 2.299 0.883 3.2 1.264 5.078 1.309 2.456 0.032 4.405-0.639 7.040-2.396 0.924-0.557 2.020-1.386 2.414-1.708 1.145-0.607 2.020-1.386 2.586-1.98 0.172-0.272 0.652-0.729 1.133-1.187 0.344-0.544 0.738-0.865 0.824-1.001 0.531-0.236 2.924-4.621 2.995-5.336 0.001 0.001 0.209-0.628 0.417-1.259zM30.696 19.537c-0.172 0.272-0.581 0.014-0.409-0.259 0.086-0.136 0.086-0.136 0.358 0.036 0.136 0.086 0.136 0.086 0.050 0.222zM31.749 16.968c0 0 0.136 0.086 0.050 0.222l-0.222 0.050c-0.136-0.086-0.050-0.222-0.050-0.222 0.086-0.136 0.086-0.136 0.222-0.050zM31.456 17.734c0.086-0.136 0.136 0.086-0.258 0.408-0.172 0.272-0.258 0.408-0.207 0.629 0 0 0 0-0.222 0.050-0.136-0.086-0.136-0.086 0.122-0.494 0.172-0.272 0.208-0.63 0.208-0.63 0.085-0.135 0.221-0.049 0.358 0.038zM32.681 14.892l-0.222 0.050c-0.136-0.086-0.050-0.222-0.050-0.222 0.086-0.136 0.086-0.136 0.222-0.050-0.001 0.001 0.135 0.087 0.050 0.222zM33.011 13.769c0 0 0.136 0.086 0.050 0.222l-0.222 0.050c-0.136-0.086-0.050-0.222-0.050-0.222 0.087-0.135 0.087-0.135 0.222-0.050zM34.832 7.881c0.050 0.222-0.122 0.494-0.122 0.494s-0.050-0.222-0.1-0.445c-0.050-0.222 0.122-0.494 0.122-0.494s0.050 0.222 0.1 0.444zM7.022 28.346c-0.136-0.086-0.050-0.222-0.050-0.222 0.086-0.136 0.086-0.136 0.222-0.050 0 0 0.136 0.086 0.050 0.222l-0.222 0.050zM9.1 29.28c-0.136-0.086-0.050-0.222-0.050-0.222 0.086-0.136 0.086-0.136 0.222-0.050s0.272 0.172 0.186 0.308c-0.001-0.001-0.222 0.050-0.358-0.036zM9.866 29.574c-0.136-0.086-0.050-0.222 0.036-0.358s0.086-0.136 0.086-0.136c0.136 0.086 0.272 0.172 0.186 0.308s-0.172 0.272-0.308 0.186zM10.962 28.745c-0.852-0.158-1.483-0.367-1.619-0.453s-0.272-0.172-0.358-0.036c-0.136-0.086-0.136-0.086-0.136-0.086s-0.136-0.086-0.495-0.122c-0.222 0.050-4.798-2.655-4.848-2.877 0 0-0.186-0.308-0.594-0.566-0.73-0.652-1.611-1.97-1.911-3.303-0.199-0.888-0.594-4.181-0.45-5.612 0.058-1.295 0.301-2.283 0.409-3.357 0.208-0.63 0.415-1.26 0.279-1.346-0.050-0.222 0.552-1.173 1.498-2.669 1.719-2.717 1.719-2.717 3.79-3.882 1.454-0.793 2.514-1.264 5.264-1.997 3.058-0.92 2.615-0.819 7.378-1.422 2.357-0.412 4.319-0.503 5.257-0.479 0.716 0.072 1.433 0.144 1.654 0.096 0.222-0.050 1.297 0.058 2.37 0.168 0.938 0.022 2.37 0.168 2.951 0.154 0.802-0.064 1.296 0.060 1.841 0.404l0.902 0.38 0.35 1.554c0.114 1.023 0.178 1.826 0.006 2.098s-0.157 0.851-0.193 1.21c-0.036 0.358-0.243 0.987-0.365 1.482s-0.451 1.618-0.61 2.469c-0.487 1.976-1.713 4.815-2.902 7.298-1.669 2.94-3.662 5.486-5.459 6.822-0.481 0.458-1.183 0.965-1.404 1.015-0.136-0.086-0.531 0.236-1.147 0.606-0.394 0.322-1.145 0.607-1.762 0.979-0.531 0.236-1.061 0.47-1.368 0.657-1.454 0.793-5.451 1.69-6.216 1.395-0.359-0.038-1.346-0.284-2.112-0.578zM11.384 29.583c0.086-0.136 0.086-0.136 0.222-0.050 0 0 0.136 0.086 0.050 0.222l-0.222 0.050c-0.136-0.086-0.050-0.222-0.050-0.222zM11.227 30.435l-0.050-0.222c0.086-0.136 0.086-0.136 0.222-0.050s0.136 0.086 0.050 0.222l-0.222 0.050zM12.286 29.964l-0.222 0.050 0.086-0.136c0.086-0.136 0.086-0.136 0.222-0.050 0 0 0 0-0.086 0.136zM12.831 30.308c-0.136-0.086-0.186-0.308-0.186-0.308 0.086-0.136 0.086-0.136 0.222-0.050 0.272 0.172 0.409 0.259 0.323 0.395 0 0-0.222 0.050-0.359-0.036zM13.46 30.516l-0.050-0.222c0.086-0.136 0.086-0.136 0.086-0.136 0.136 0.086 0.272 0.172 0.186 0.308l-0.222 0.050zM14.177 30.589c-0.272-0.172-0.236-0.531-0.014-0.581s0.409 0.259 0.237 0.531l-0.222 0.050zM14.793 30.218c0.036-0.358 0.036-0.358 0.258-0.408 0.136 0.086 0.323 0.395 0.065 0.802-0.088 0.137-0.361-0.036-0.323-0.393zM15.832 30.685c-0.358-0.036-0.335-0.974-0.028-1.159 0.222-0.050 0.272 0.172 0.236 0.531 0.186 0.308 0.1 0.444 0.014 0.581-0-0.002-0.087 0.134-0.223 0.048zM18.015 30.544c-0.136-0.086-0.1-0.444-0.014-0.581-0.050-0.222-0.1-0.444-0.1-0.444-0.272-0.172-0.358-0.036-0.344 0.544 0.050 0.222-0.122 0.494-0.207 0.629 0 0-0.136-0.086-0.236-0.531 0.036-0.358-0.014-0.581-0.014-0.581-0.272-0.172-0.358-0.036-0.258 0.408 0.050 0.222 0.1 0.444 0.014 0.581-0.172 0.272-0.445 0.1-0.373-0.617-0.014-0.581-0.014-0.581 0.652-0.729 0.973-0.335 1.109-0.249 1.124 0.33 0.050 0.222 0.014 0.581-0.072 0.717 0.188 0.309-0.035 0.359-0.171 0.273zM18.768 30.259c-0.136-0.086-0.128-1.604 0.008-1.517 0.222-0.050 0.472 1.059 0.214 1.467-0.086 0.136-0.222 0.050-0.222 0.050zM19.37 29.307c0.193-1.21 0.193-1.21 0.222-0.050-0.036 0.358-0.071 0.715-0.157 0.851-0.001 0.001-0.051-0.221-0.065-0.802zM20.014 30.095c-0.136-0.086 0.044-1.876 0.13-2.012 0.222-0.050 0.25 1.109 0.128 1.604-0.086 0.136-0.258 0.408-0.258 0.408zM20.666 29.367c0 0 0.122-0.494 0.157-0.851-0.064-0.803 0.208-0.63 0.272 0.172 0.1 0.445-0.072 0.717-0.157 0.851-0.308 0.186-0.445 0.1-0.272-0.172zM21.354 28.279c0.036-0.358 0.071-0.715 0.157-0.851 0.308-0.186 0.581-0.014 0.409 0.259 0 0-0.172 0.272 0.014 0.581-0.036 0.358 0.014 0.581-0.072 0.717-0.172 0.269-0.443 0.097-0.508-0.704zM22.278 27.723c-0.014-0.581 0.157-0.851 0.293-0.765 0.222-0.050 0.114 1.023-0.144 1.431-0.121 0.493-0.308 0.185-0.149-0.666zM23.044 28.017c0 0-0.050-0.222-0.064-0.803 0.157-0.851 0.157-0.851 0.293-0.765s0.1 0.444 0.064 0.803c0.015 0.579-0.157 0.851-0.293 0.765zM23.747 27.509c0 0 0.036-0.358 0.072-0.717-0.014-0.581 0.157-0.851 0.293-0.765 0.222-0.050 0.371 0.616 0.028 1.159-0.172 0.274-0.393 0.323-0.393 0.323zM25.037 25.471c0.172-0.272 0.086-0.136 0.050 0.222s-0.208 0.63-0.293 0.765c-0.172 0.272-0.151-0.666 0.243-0.987zM25.58 25.814c-0.172 0.272-0.172 0.272-0.050-0.222-0.050-0.222-0.014-0.581-0.014-0.581 0.086-0.136 0.172-0.272 0.172-0.272 0.222-0.050 0.358 0.036 0.323 0.395-0.037 0.36-0.208 0.63-0.43 0.68zM26.454 25.036c0 0-0.136-0.086-0.1-0.444-0.1-0.445 0.122-0.494 0.136 0.086 0.050 0.222 0.1 0.444-0.036 0.358zM26.834 24.134c-0.1-0.444-0.014-0.581 0.222-0.050 0.136 0.086 0.186 0.308 0.1 0.444s-0.358-0.036-0.323-0.395zM27.672 23.714c-0.086 0.136-0.086 0.136-0.272-0.172s0.071-0.715 0.207-0.629c0.136 0.086 0.272 0.172 0.186 0.308 0.051 0.221 0.101 0.443-0.121 0.493zM28.053 22.811c-0.136-0.086 0.036-0.358 0.122-0.494s0.086-0.136 0.086-0.136c-0.086 0.136-0.036 0.358 0.1 0.445s0.272 0.172 0.272 0.172c-0.037 0.358-0.308 0.186-0.581 0.014zM28.618 22.219c-0.186-0.308-0.014-0.581 0.395-0.322 0.136 0.086 0.186 0.308 0.1 0.444-0.173 0.271-0.308 0.186-0.495-0.122zM29.628 21.525c-0.086 0.136-0.358-0.036-0.495-0.122-0.272-0.172-0.272-0.172 0.222-0.050 0.358 0.036 0.495 0.122 0.272 0.172zM29.256 20.909l0.086-0.136c0.086-0.136 0.222-0.050 0.222-0.050s0.136 0.086 0.050 0.222c0 0-0.222 0.050-0.358-0.036zM30.18 20.353l-0.136-0.086c-0.222 0.050-0.222 0.050-0.358-0.036-0.050-0.222 0.036-0.358 0.531-0.236 0.272 0.172 0.409 0.259 0.323 0.395s-0.224 0.049-0.358-0.036z"></path>
<path d="M11.824 16.541c-0.272-0.172-0.358-0.036-0.38 0.901 0.014 0.581-0.021 0.938 0.115 1.024l0.086-0.136c0.086-0.136 0.122-0.494 0.243-0.987 0.036-0.358-0.065-0.802-0.065-0.802z"></path>
<path d="M10.837 16.296c-0.136-0.086-0.308 0.186-0.157 0.851 0.1 0.444 0.15 0.667 0.15 0.667 0.306-0.186 0.279-1.346 0.007-1.518z"></path>
<path d="M21.994 19.74c1.919-1.83 2.386-2.867 2.651-4.793 0.23-1.567 0.13-2.012-0.493-3.738-0.573-1.504-1.403-2.601-2.9-3.548-1.088-0.689-1.447-0.725-2.657-0.919-1.927-0.268-3.36-0.413-3.939-0.398-0.888 0.198-1.898 0.893-3.166 1.992-1.748 1.558-2.472 3.003-2.787 4.707-0.524 2.332 0.049 3.836 1.882 5.758 0.83 1.097 2.598 2.216 3.859 2.632 0.409 0.259 1.397 0.503 2.198 0.44 2.151 0.218 3.126-0.116 5.353-2.133zM19.33 20.338c-0.222 0.050-0.358-0.036-0.2-0.887-0.014-0.581-0.029-1.16-0.078-1.381-0.064-0.803-0.323-0.395-0.344 0.544-0.008 1.517 0.006 2.098-0.352 2.060-0.086 0.136-0.222 0.050-0.136-0.086s0.036-0.358-0.014-0.581-0.064-0.803-0.078-1.381c-0.064-0.803-0.028-1.159-0.199-0.888-0.086 0.136-0.301 2.283-0.065 2.813-0.086 0.136-0.036 0.358-0.172 0.272 0 0-0.222 0.050-0.358-0.036-0.581 0.014-0.63-0.208-0.537-1.862-0.014-0.581 0.021-0.938-0.114-1.023-0.050-0.222-0.207 0.629-0.18 1.789-0.071 0.715-0.107 1.074-0.243 0.987-0.308 0.186-0.371-0.616-0.228-2.048 0.072-0.717 0.057-1.296-0.078-1.381-0.186-0.308-0.293 0.765-0.352 2.060 0.078 1.381-0.008 1.517-0.774 1.223-0.409-0.259-0.323-0.395-0.264-1.69 0.157-0.851 0.008-1.517 0.008-1.517-0.186-0.308-0.359-0.036-0.258 0.408 0.014 0.581-0.165 2.369-0.251 2.505-0.222 0.050-0.545-0.345-0.594-0.566-0.050-0.222 0.021-0.938 0.094-1.653 0.071-0.715 0.057-1.296 0.057-1.296-0.272-0.172-0.272-0.172-0.365 1.482-0.144 1.431-0.144 1.431-0.415 1.259-0.272-0.172-0.272-0.172-0.186-0.308-0.136-0.086-0.15-0.667-0.078-1.381 0.107-1.074 0.144-1.431-0.114-1.023-0.086 0.136-0.23 1.567-0.215 2.147 0.186 0.308 0.050 0.222-0.766-0.294s-1.088-0.689-1.51-1.527c-1.711-2.415-1.030-5.6 1.456-8.023 1.183-0.965 2.894-2.165 3.166-1.992 0 0-0.086 0.136-0.394 0.322-0.838 0.42-0.48 0.457 0.495 0.122 0.531-0.236 1.109-0.249 1.246-0.163s0.358 0.036 0.445-0.1c0.086-0.136 0.531-0.236 1.246-0.163 0.63 0.208 1.347 0.28 1.568 0.232 0.581-0.014 2.026 0.711 2.672 1.5 0.866 0.739 1.375 1.442 1.948 2.945 0.472 1.061 0.537 1.862 0.342 3.071-0.021 0.938-0.696 2.605-1.053 2.569 0 0-0.086 0.136-0.258 0.408s-0.581 0.014-0.594-0.566c-0.050-0.222-0.1-0.445-0.186-0.308 0 0-0.086 0.136-0.036 0.358s0.014 0.581 0.014 0.581c-0.086 0.136-0.172 0.272-0.036 0.358 0 0 0.136 0.086 0.050 0.222-0.172 0.272-0.308 0.186-0.371-0.616-0.199-0.888-0.644-0.788-0.445 0.1 0.064 0.803-0.143 1.432-0.279 1.346s-0.236-0.531-0.199-0.888c0.021-0.938-0.028-1.159-0.25-1.109-0.086 0.136-0.207 0.629-0.107 1.074 0.065 0.802 0.028 1.159-0.058 1.295-0.308 0.186-0.222 0.050-0.186-0.308 0.072-0.717-0.128-1.604-0.264-1.69s-0.172 0.272-0.058 1.295c-0.065 1.289-0.15 1.424-0.508 1.388z"></path>
</symbol>
<symbol id="icon-brokoli" viewBox="0 0 31 32">
<path d="M17.499 1.363c-0.575-0.485-2.581-1.211-3.788-0.943-0.35 0.027-0.892-0.108-0.892-0.108-0.224-0.511-1.273-0.43-2.066 0.51-0.477 0.565-0.984 0.778-1.494 0.993-0.701 0.053-1.652 1.182-1.779 1.72 0.191 0.162 0.065 0.7-0.251 1.075-0.318 0.377-0.636 0.753-0.601 1.101 0.033 0.35-0.126 0.538-0.825 0.59-0.35 0.027-0.86 0.242-1.176 0.617-0.159 0.188-0.668 0.403-1.018 0.43-0.701 0.053-1.017 0.428-1.176 0.617s-0.668 0.403-1.017 0.428c-1.209 0.267-1.746 2.070-0.98 2.716 0.192 0.162 0.065 0.7-0.251 1.075-0.285 0.726-0.251 1.075 0.195 2.096 0.224 0.511 0.288 1.21 0.32 1.56 0.065 0.7 0.513 1.719 1.054 1.856 0.733 0.296 0.607 0.835-0.186 1.774s-0.887 1.828-0.473 2.499c0.383 0.323 0.416 0.673-0.059 1.236-0.443 0.913 0.004 1.934 0.896 2.043l0.575 0.485c-0.126 0.538 0.638 1.183 1.339 1.13s1.494-0.993 1.302-1.155c-0.191-0.162-0.35 0.027-0.35 0.027-0.159 0.188-0.35 0.027-0.542-0.135s-0.35 0.027-0.35 0.027c-0.318 0.377-0.892-0.108-0.416-0.673 0.159-0.188 0.126-0.538-0.065-0.7s-0.542-0.135-0.701 0.053c-0.668 0.403-1.051 0.080-0.956-0.806l0.634-0.751c0.86-0.242 0.634-0.751-0.098-1.050-0.383-0.323-0.575-0.485-0.607-0.835-0.224-0.511 0.41-1.263 1.302-1.155 0.542 0.135 0.701-0.053 0.477-0.565-0.448-1.023-0.479-1.371 0.41-1.263 0.542 0.135 0.542 0.135 0.477-0.565-0.224-0.511-0.224-0.511 0.159-0.188 0.733 0.296 1.082 0.268 1.017-0.428-0.033-0.35-0.033-0.35 0.634-0.751 0.509-0.215 0.509-0.215 0.509-0.215-0.126 0.538 0.257 0.861 0.925 0.458 0.159-0.188 0.509-0.215 0.701-0.053 0.383 0.323 0.733 0.296 0.733 0.296 0.35-0.027 0.542 0.135 0.733 0.296 0.224 0.511 0.797 0.995 1.115 0.618s0.701-0.053 0.607 0.835c0.065 0.7 0.098 1.050 0.257 0.861s0.701-0.053 0.892 0.108c0.383 0.323 0.257 0.861-0.218 1.424-0.668 0.403-0.477 0.565 0.065 0.7l0.733 0.296-0.984 0.778c-0.984 0.778-0.984 0.778-0.41 1.263s-0.218 1.424-1.111 1.316c-0.701 0.054-1.051 0.080-1.017 0.428-0.159 0.188 0.033 0.35 0.033 0.35 0.542 0.135 0.638 1.183 0.322 1.558-0.318 0.377-1.749 0.134-2.323-0.351s-0.575-0.485-1.051 0.080c-0.826 0.59-1.176 0.617-1.749 0.133-0.575-0.485-0.892-0.108-0.477 0.565 0.766 0.646 1.306 0.78 2.132 0.19 0.509-0.215 0.86-0.242 1.432 0.241 1.465 0.591 2.8-0.214 2.861-1.452 0.126-0.538 0.285-0.727 0.793-0.94 0.35-0.027 0.86-0.242 1.017-0.428 0.318-0.377 0.477-0.565 0.668-0.403 0.575 0.485 1.624 0.403 2.099-0.16 0.159-0.188 0.668-0.403 0.984-0.778 0.35-0.027 0.826-0.59 0.984-0.778 0.126-0.538 1.59 0.055 3.821 1.292 1.881 1.264 2.645 1.909 4.432 4.061 1.18 1.318 1.404 1.829 1.471 2.527 0.065 0.7 0.065 0.7 0.575 0.485 0.35-0.027 0.668-0.403 1.143-0.967 0.126-0.538 0.76-1.29 1.269-1.505 0.477-0.565 0.634-0.751 0.728-1.64 0.251-1.075 0.059-1.236-1.726-3.387-0.829-1.345-2.392-2.985-3.317-3.443-1.339-1.13-3.761-2.529-5.225-3.122-0.35 0.027-0.383-0.323 0.126-0.538 0.318-0.377 0.827-0.592 1.018-0.43 0.509-0.215 1.746-2.070 1.52-2.579-0.033-0.35 0.094-0.888 0.059-1.236 0.159-0.188-0.065-0.7-0.288-1.21-0.257-0.861-0.289-1.211-0.132-1.398 0.601-1.101-0.42-2.607-2.392-2.985-1.465-0.591-1.273-0.43-0.988-1.156 0.159-0.188 0.126-0.538-0.065-0.7s-0.224-0.511-0.065-0.7-0.479-1.371-1.021-1.506c0 0-0.383-0.323-0.416-0.673-0.040-0.341-0.423-0.664-0.456-1.014zM15.608 9.425c0.192 0.162 0.383 0.323 0.383 0.323s0 0 0.35-0.027 0.542 0.135 0.416 0.673 0.257 0.861 0.766 0.646c0.159-0.188 0.509-0.215 0.701-0.053 0.383 0.323-0.094 0.888-0.634 0.751-0.701 0.053-0.86 0.242-0.094 0.888 0.956 0.806 0.956 0.806 0.448 1.023-0.701 0.053-0.668 0.403-0.285 0.726 0.575 0.485 0.132 1.398-0.728 1.64s-0.826 0.59-0.41 1.263c0.191 0.162 0.224 0.511 0.224 0.511-0.126 0.538-1.051 0.080-1.274-0.43-0.416-0.673-1.273-0.43-1.051 0.080 0.446 1.021-0.218 1.424-1.176 0.617-0.383-0.323-0.956-0.806-0.988-1.156-0.191-0.162-0.383-0.323-0.925-0.458-0.892-0.108-2.581-1.211-1.881-1.264 0.509-0.215 0.285-0.727-0.416-0.673-0.35 0.027-0.733-0.296-0.925-0.458-0.224-0.511 0.059-1.236 0.76-1.29 0.892 0.108 0.892 0.108 0.443-0.913-0.605-0.833-0.322-1.558 0.569-1.451 0.191 0.162 0.542 0.135 0.668-0.403 0.285-0.726 1.494-0.993 2.066-0.51 0.542 0.135 1.051-0.080 0.826-0.59-0.033-0.35 1.017-0.428 1.241 0.080 0.383 0.32 0.574 0.481 0.925 0.455zM18.042 16.631l0.033 0.35c-0.159 0.188-0.35 0.027-0.542-0.135 0 0 0-0 0.159-0.188l0.35-0.027zM7.026 13.775c0.033 0.35 0.257 0.861 0.448 1.023-0.542-0.135-1.907 0.322-2.384 0.887-0.318 0.377-0.826 0.59-1.176 0.617-0.701 0.053-1.017 0.428-1.176 0.617s-0.509 0.215-0.733-0.296-0.575-0.485-0.098-1.050c0.634-0.751 0.41-1.263-0.289-1.211-0.701 0.053-0.892-0.108-0.956-0.806 0.126-0.538 0.251-1.075 0.76-1.29 0.477-0.565 0.634-0.751 0.442-0.913-0.733-0.296-1.147-0.968-1.021-1.506 0.477-0.565 1.143-0.967 1.716-0.483 0.383 0.323 0.86-0.242 0.634-0.751-0.383-0.323 0.827-0.592 1.21-0.268 0.733 0.296 0.892 0.108 0.826-0.59-0.033-0.35-0.033-0.35 0.477-0.565 0.86-0.242 0.86-0.242 1.115 0.618 0.065 0.7 0.257 0.861 0.733 0.296 0.86-0.242 1.051-0.080 0.925 0.458 0.033 0.35 0.383 0.323 1.082 0.268l0.701-0.054-0.668 0.403c-0.159 0.188-0.826 0.59-0.984 0.778-0.509 0.215-0.477 0.565-0.41 1.263 0.033 0.35-0.094 0.888-0.41 1.263-0.512 0.219-0.638 0.757-0.763 1.293zM17.066 21.282c-0.892-0.108-1.017 0.428-0.601 1.101 0.383 0.323-0.251 1.075-0.634 0.751-0.733-0.296-0.892-0.108-0.825 0.59-0.126 0.538-0.285 0.727-0.634 0.751-0.35 0.027-0.542-0.135-0.383-0.323 0.126-0.538-0.257-0.861-0.766-0.646-0.159 0.188-0.35 0.027-0.542-0.135 0 0 0.159-0.188 0.318-0.377 0.35-0.027 0.793-0.94 0.662-2.339l0.059-1.236 0.86-0.242c0.509-0.215 1.208-0.267 1.718-0.482 0.542 0.135 1.051-0.080 1.367-0.455 0.159-0.188 0.509-0.215 0.701-0.053s0.033 0.35-0.443 0.913c-0.668 0.403-0.477 0.565-0.251 1.075 0.57 0.487 0.093 1.052-0.606 1.107zM26.851 27.925c0.988 1.156 1.404 1.829 1.245 2.018s-0.35 0.027-0.542-0.135c-0.257-0.861-3.765-4.463-5.453-5.568-0.764-0.645-1.881-1.264-2.612-1.559-0.733-0.296-1.306-0.78-1.306-0.78-0.224-0.511 3.279 1.158 5.384 2.933 1.496 0.94 2.295 1.936 3.284 3.090zM28.823 28.303c0.448 1.023-0.477 0.565-1.498-0.941-1.404-1.829-3.507-3.603-5.738-4.841-2.771-1.371-2.963-1.532-2.804-1.721s1.051-0.080 2.164 0.54c1.657 0.753 2.39 1.049 4.112 2.502 2.103 1.771 3.698 3.762 3.764 4.461zM29.999 27.686c-0.159 0.188-0.159 0.188-0.35 0.027-0.383-0.323-0.383-0.323-0.224-0.511 0 0 0.159-0.188 0.35-0.027s0.224 0.511 0.224 0.511zM30.060 26.448c-0.186-0.157-0.55-0.467-0.424-0.656 0.317 0.34 0.585 0.792 0.424 0.656zM28.338 24.995c0.224 0.511 0.638 1.183 0.671 1.533 0.224 0.511 0.224 0.511-0.733-0.296-0.416-0.673-1.946-1.964-3.093-2.932-1.913-1.614-2.836-2.071-4.142-2.85-0.925-0.458-1.656-0.753-1.848-0.915-0.35 0.027 0.126-0.538 0.634-0.751 1.562-0.297 6.503 3.549 8.512 6.212zM21.843 8.245c0.575 0.485 0.479 1.371-0.027 1.586-0.701 0.053-0.826 0.59-0.285 0.726 0.733 0.296 1.021 1.506 0.546 2.069-0.318 0.377-0.477 0.565-0.094 0.888 0.191 0.162 0.575 0.485 0.416 0.673 0.192 0.162 0.065 0.7-0.253 1.076s-0.668 0.403-1.209 0.267c-0.733-0.296-0.892-0.108-0.826 0.59 0.033 0.35-0.634 0.751-0.86 0.242 0 0-0.191-0.162-0.542-0.135s-0.192-0.162-0.033-0.35c0.159-0.188 0.126-0.538 0.094-0.888-0.224-0.511-0.098-1.050 0.059-1.236 0.159-0.188 0.126-0.538 0.094-0.888-0.191-0.162-0.257-0.861 0.059-1.236 0.094-0.888-0.132-1.398-0.862-1.694-0.35 0.027-0.542-0.135-0.733-0.296 0.159-0.188-0.065-0.7-0.448-1.023-0.607-0.835 0.059-1.236 0.826-0.59 0.542 0.135 0.542 0.135 0.701-0.054s0.318-0.377 0.701-0.053c0.191 0.162 0.383 0.323 0.542 0.135s0.318-0.377 0.35-0.027c0.065 0.7 0.605 0.833 1.082 0.268 0.159-0.185 0.318-0.373 0.701-0.050zM17.122 2.976c-0.477 0.565-0.094 0.888 0.416 0.673 0.35-0.027 0.925 0.458 0.416 0.673-0.668 0.403-0.251 1.075 0.288 1.21 0.35-0.027 0.35-0.027 0.542 0.135-0.126 0.538-0.634 0.751-0.984 0.778-0.542-0.135-0.701 0.054-0.701 0.054-0.159 0.188-0.509 0.215-0.668 0.403l-0.477 0.565c-0.094 0.888-0.251 1.075-0.825 0.59s-1.624-0.403-2.29-0.001c-0.825 0.59-2.066 0.51-2.641 0.025-1.306-0.78-2.836-2.071-2.869-2.421s0.444-0.915 0.984-0.778c0.542 0.135 0.86-0.242 0.442-0.913-0.383-0.323-0.224-0.511 0.252-1.076s0.477-0.565 1.051-0.080c0.764 0.645 0.923 0.456 1.017-0.428-0.224-0.511-0.065-0.7 0.251-1.075l0.477-0.565c0 0 0.383 0.323 0.575 0.485 0.383 0.323 0.575 0.485 0.733 0.296s0.509-0.215 1.017-0.428c0.701-0.053 0.892 0.108 0.766 0.646-0.159 0.188 0.033 0.35 0.383 0.323 0.192 0.162 0.701-0.053 0.86-0.242 0.473-0.571 1.080 0.263 0.986 1.151z"></path>
</symbol>
</defs>
</svg>
